<?xml version="1.0" encoding="utf-8"?>
<!-- Generator: Adobe Illustrator 23.0.5, SVG Export Plug-In . SVG Version: 6.00 Build 0)  -->
<svg version="1.1" id="Capa_1" xmlns="http://www.w3.org/2000/svg" xmlns:xlink="http://www.w3.org/1999/xlink" x="0px" y="0px"
	 viewBox="0 0 1280 1024" style="enable-background:new 0 0 1280 1024;" xml:space="preserve">
<style type="text/css">
	.st0{display:none;fill:none;stroke:#000000;stroke-width:9;stroke-miterlimit:10;}
	.st1{fill:none;stroke:#FFFFFF;stroke-width:24;stroke-miterlimit:10;}
	.st2{fill:none;stroke:#000000;stroke-width:24;stroke-miterlimit:10;}
	.st3{fill:#333669;}
	.st4{fill:none;stroke:#FFFFFF;stroke-width:20;stroke-miterlimit:10;}
	.st5{fill:none;stroke:#FFFFFF;stroke-width:3;stroke-miterlimit:10;}
	.st6{fill:none;stroke:#0DC990;stroke-width:20;stroke-miterlimit:10;}
	.st7{fill:none;stroke:#FFFFFF;stroke-width:9;stroke-miterlimit:10;}
	.st8{fill:#FFFFFF;stroke:#FFFFFF;stroke-width:0.25;stroke-miterlimit:10;}
	.st9{fill:none;stroke:#FFFFFF;stroke-width:4;stroke-miterlimit:10;}
	.st10{fill:#FFFFFF;stroke:#FFFFFF;stroke-miterlimit:10;}
</style>
<path class="st0" d="M686.15,384.04"/>
<path class="st1" d="M639.51,373.02"/>
<path class="st1" d="M639.51,442.69"/>
<path class="st2" d="M93,859"/>
<g>
	<g>
		<path class="st3" d="M220.68,804.82c1.93,0,1.93-3,0-3C218.75,801.82,218.75,804.82,220.68,804.82L220.68,804.82z"/>
	</g>
</g>
<path class="st4" d="M586.29,791"/>
<path class="st5" d="M578.31,333.2"/>
<path class="st6" d="M583.81,233.7"/>
<path class="st7" d="M610.03,514.58"/>
<path class="st7" d="M692.67,635.19"/>
<polyline class="st4" points="534.09,368.28 534.09,371.68 534.09,637.38 534.09,642.56 "/>
<g>
	<path class="st4" d="M534.09,371.68v265.7c-39.44-30.87-64.77-78.89-64.77-132.85C469.31,450.57,494.64,402.55,534.09,371.68z"/>
</g>
<line class="st4" x1="711.81" y1="350.7" x2="711.54" y2="649.36"/>
<line class="st4" x1="578.76" y1="517.81" x2="578.76" y2="647.36"/>
<line class="st4" x1="668.1" y1="517.54" x2="569.82" y2="518.73"/>
<path class="st8" d="M720.43,350.41c-20.42-18.49-46.83-29.71-75.79-29.71c-28.97,0-55.39,11.23-75.83,29.71H720.43z"/>
<line class="st9" x1="568.71" y1="351.87" x2="720.59" y2="351.87"/>
<path class="st10" d="M568.75,649.05c20.59,18.27,47.1,29.23,76.06,28.93c28.97-0.3,55.29-11.8,75.55-30.49L568.75,649.05z"/>
<line class="st9" x1="720.43" y1="646.02" x2="568.55" y2="647.59"/>
<g>
	<polyline class="st4" points="750.28,642.45 750.29,639.06 751.19,373.36 751.2,368.18 	"/>
	<path class="st4" d="M808.81,561.49c-11.3,22.16-39.02,62.43-58.52,77.57l0.89-265.7c19.74,15.57,35.94,35.45,47.11,58.23
		c2.48,5,4.71,10.18,6.66,15.48"/>
	<path class="st4" d="M805.46,437.52c-17.17,27.3-34.24,63.52-53.61,89.34"/>
	<path class="st4" d="M809.7,571.54c-17.9-20.77-36.34-42.15-55.84-64.77"/>
</g>
<path class="st4" d="M534.08,630.85"/>
<path class="st4" d="M591.08,641.76"/>
<path class="st4" d="M629.81,654.7"/>
<path class="st4" d="M525.6,623.71"/>
<line class="st7" x1="500.31" y1="575.2" x2="494.31" y2="594.2"/>
<line class="st7" x1="781.31" y1="579.2" x2="786.31" y2="601.2"/>
</svg>
