<?xml version="1.0" encoding="utf-8"?>
<!-- Generator: Adobe Illustrator 25.4.1, SVG Export Plug-In . SVG Version: 6.00 Build 0)  -->
<svg version="1.1" id="Layer_1" xmlns="http://www.w3.org/2000/svg" xmlns:xlink="http://www.w3.org/1999/xlink" x="0px" y="0px"
	 viewBox="0 0 4500 4500" style="enable-background:new 0 0 4500 4500;" xml:space="preserve">
<style type="text/css">
	.st0{fill-rule:evenodd;clip-rule:evenodd;fill:#FFFFFF;}
	.st1{fill-rule:evenodd;clip-rule:evenodd;fill:#E59A59;}
	.st2{fill-rule:evenodd;clip-rule:evenodd;fill:#1A1A1A;}
	.st3{fill-rule:evenodd;clip-rule:evenodd;fill:#0B4486;}
	.st4{fill:#E59A59;}
	.st5{fill-rule:evenodd;clip-rule:evenodd;fill:none;}
	.st6{display:none;}
	.st7{display:inline;fill:#FFA500;}
	.st8{fill:#0B4486;}
</style>
<g>
	<rect x="-2416.7" y="-567.47" class="st0" width="9333.41" height="5943.77"/>
	<path class="st1" d="M1165.47,2352.9c61.19-110.72,139.39-204.44,229.82-283.24l46.86,161.17l0.3-199.98l0,0v-61.47v-332.5h234.89
		v248.63c16.71-8.06,34.03-16.12,51.34-23.58l45.97,158.19l0.3-177.59l0,0v-84.17v-376.67h234.89v385.03
		c22.98-5.97,45.96-11.34,68.94-16.12l28.35,97.3l0.3-103.27h0.3v-158.49V1126.8h234.61v582.91
		c245.34-24.47,482.02-11.64,665.58,18.5c0,0-1082.25-8.95-1419.81,624.69H1165.47z"/>
	<path class="st2" d="M2471.27,1892.66c-96.41,35.52-383.23,166.54-547.39,460.23h-221.46c75.22-118.78,182.37-211.02,303.84-282.34
		C2146.84,1987.58,2308.61,1930.87,2471.27,1892.66L2471.27,1892.66z"/>
	<path class="st3" d="M1994.02,862.94c256.98,0,485.91,119.39,634.54,305.34l70.15-84.47l36.41,346.82l-297.58-181.77l112.82-28.65
		c-131.63-161.18-331.9-263.85-556.35-263.85c-396.67,0-718.41,321.75-718.41,718.41c0,110.14,24.77,214.6,69.24,308.02
		c-25.07,20.9-48.95,42.68-71.93,65.67c-57.9-111.93-90.73-238.78-90.73-373.69C1182.19,1226.48,1545.72,862.94,1994.02,862.94
		L1994.02,862.94z"/>
	<path class="st1" d="M2000.89,1025.01c76.11,0,149.23,13.14,217.28,36.71c-44.77-8.65-91.03-13.13-138.49-13.13
		c-400.84,0-725.87,325.03-725.87,726.17c0,10.15,0.3,19.99,0.6,30.14c-7.47-39.69-11.34-80.28-11.34-122.07
		C1343.06,1319.6,1637.65,1025.01,2000.89,1025.01L2000.89,1025.01z"/>
</g>
<g>
	<path d="M2547.28,2043.18c68.4,0,102.6,27.53,102.6,82.59h-82.08c0-13.76-6.84-20.65-20.52-20.65h-41.04
		c-13.68,0-20.52,6.88-20.52,20.65v20.65c0,13.77,6.84,20.65,20.52,20.65h41.04c68.4,0,102.6,27.53,102.6,82.59v20.65
		c0,55.06-34.2,82.59-102.6,82.59h-41.04c-68.41,0-102.6-27.53-102.6-82.59h82.08c0,13.77,6.84,20.65,20.52,20.65h41.04
		c13.68,0,20.52-6.88,20.52-20.65v-20.65c0-13.76-6.84-20.65-20.52-20.65h-41.04c-68.41,0-102.6-27.53-102.6-82.59v-20.65
		c0-55.06,34.2-82.59,102.6-82.59H2547.28z"/>
	<path d="M2757.62,2290.95h164.17v61.94h-246.25v-309.71h246.25v61.94h-164.17v61.94h102.6v61.94h-102.6V2290.95z"/>
	<path d="M2947.44,2043.18h82.08v247.77h143.65v61.94h-225.73V2043.18z"/>
	<path d="M3445.07,2043.18v61.94H3280.9v61.94h102.6v61.94h-102.6v123.89h-82.08v-309.71H3445.07z"/>
</g>
<g>
	<path class="st4" d="M1401.7,2835.39v58.39h-155.7v58.39h97.31v58.39h-97.31v116.77h-77.85v-291.93H1401.7z"/>
	<path class="st4" d="M1579.61,3127.32h-77.85v-291.93h136.23c64.87,0,97.31,25.95,97.31,77.85v19.46
		c0,39.7-19.07,64.22-57.22,73.57l76.68,121.05h-87.58l-73.96-116.77h-13.62V3127.32z M1579.61,2952.16h58.39
		c12.97,0,19.46-6.49,19.46-19.46v-19.46c0-12.97-6.49-19.46-19.46-19.46h-58.39V2952.16z"/>
	<path class="st4" d="M1913.21,3068.93h155.7v58.39h-233.54v-291.93h233.54v58.39h-155.7v58.39h97.31v58.39h-97.31V3068.93z"/>
	<path class="st4" d="M2246.81,3068.93h155.7v58.39h-233.54v-291.93h233.54v58.39h-155.7v58.39h97.31v58.39h-97.31V3068.93z"/>
	<path class="st4" d="M2502.56,2835.39h136.23c64.87,0,97.31,32.44,97.31,97.31v97.31c0,64.88-32.44,97.31-97.31,97.31h-136.23
		V2835.39z M2580.41,3068.93h58.39c12.97,0,19.46-12.97,19.46-38.92v-97.31c0-25.95-6.49-38.92-19.46-38.92h-58.39V3068.93z"/>
	<path class="st4" d="M2823.12,2932.7c0-64.87,32.43-97.31,97.31-97.31h38.92c64.87,0,97.31,32.44,97.31,97.31v97.31
		c0,64.88-32.44,97.31-97.31,97.31h-38.92c-64.88,0-97.31-32.43-97.31-97.31V2932.7z M2920.43,2893.78
		c-12.98,0-19.46,12.98-19.46,38.92v97.31c0,25.95,6.49,38.92,19.46,38.92h38.92c12.97,0,19.46-12.97,19.46-38.92v-97.31
		c0-25.95-6.49-38.92-19.46-38.92H2920.43z"/>
	<path class="st4" d="M3234.57,2987.97v139.35h-77.85v-291.93h77.85l68.12,121.83l68.12-121.83h77.85v291.93h-77.85v-139.35
		l-58.39,104.51l-9.73,17.52l-9.73-17.52L3234.57,2987.97z"/>
</g>
<g>
	<rect x="1348.52" y="2814.92" class="st5" width="125" height="18.75"/>
</g>
<g class="st6">
	<path class="st7" d="M-4961.64,4015.86v66.21h-176.56v66.21h110.35v66.21h-110.35v132.42h-88.28v-331.05H-4961.64z"/>
	<path class="st7" d="M-4800.57,4346.92h-88.28v-331.05h88.28V4346.92z"/>
	<path class="st7" d="M-4639.5,4188.89v158.02h-88.28v-331.05h88.28l88.28,158.02v-158.02h88.28v331.05h-88.28L-4639.5,4188.89z"/>
	<path class="st7" d="M-4309.15,4302.78l-14.79,44.14h-88.28l110.35-331.05h88.28l110.35,331.05h-88.28l-14.79-44.14H-4309.15z
		 M-4257.73,4148.29l-29.35,88.28h58.71L-4257.73,4148.29z"/>
	<path class="st7" d="M-3964.24,4188.89v158.02h-88.28v-331.05h88.28l88.28,158.02v-158.02h88.28v331.05h-88.28L-3964.24,4188.89z"
		/>
	<path class="st7" d="M-3560.39,4280.71c14.71,0,22.07-14.71,22.07-44.14h88.28c0,73.57-36.79,110.35-110.35,110.35h-44.14
		c-73.57,0-110.35-36.78-110.35-110.35v-110.35c0-73.57,36.78-110.35,110.35-110.35h44.14c73.57,0,110.35,36.79,110.35,110.35
		h-88.28c0-29.43-7.36-44.14-22.07-44.14h-44.14c-14.71,0-22.07,14.71-22.07,44.14v110.35c0,29.43,7.36,44.14,22.07,44.14H-3560.39z
		"/>
	<path class="st7" d="M-3288.97,4346.92h-88.28v-331.05h88.28V4346.92z"/>
	<path class="st7" d="M-3135.19,4302.78l-14.79,44.14h-88.28l110.35-331.05h88.28l110.35,331.05h-88.28l-14.79-44.14H-3135.19z
		 M-3083.76,4148.29l-29.35,88.28h58.71L-3083.76,4148.29z"/>
	<path class="st7" d="M-2878.55,4015.86h88.28v264.84h154.49v66.21h-242.77V4015.86z"/>
</g>
<g>
	<path class="st8" d="M1401.7,2452.84v58.39h-155.7v58.39h97.31V2628h-97.31v116.77h-77.85v-291.93H1401.7z"/>
	<path class="st8" d="M1543.74,2744.77h-77.85v-291.93h77.85V2744.77z"/>
	<path class="st8" d="M1685.77,2605.43v139.35h-77.85v-291.93h77.85l77.85,139.35v-139.35h77.85v291.93h-77.85L1685.77,2605.43z"/>
	<path class="st8" d="M1977.07,2705.85l-13.04,38.92h-77.85l97.31-291.93h77.85l97.31,291.93h-77.85l-13.04-38.92H1977.07z
		 M2022.42,2569.62l-25.88,77.85h51.77L2022.42,2569.62z"/>
	<path class="st8" d="M2281.22,2605.43v139.35h-77.85v-291.93h77.85l77.85,139.35v-139.35h77.85v291.93h-77.85L2281.22,2605.43z"/>
	<path class="st8" d="M2637.34,2686.39c12.97,0,19.46-12.97,19.46-38.92h77.85c0,64.88-32.44,97.31-97.31,97.31h-38.92
		c-64.88,0-97.31-32.43-97.31-97.31v-97.31c0-64.87,32.43-97.31,97.31-97.31h38.92c64.87,0,97.31,32.44,97.31,97.31h-77.85
		c0-25.95-6.49-38.92-19.46-38.92h-38.92c-12.98,0-19.46,12.98-19.46,38.92v97.31c0,25.95,6.49,38.92,19.46,38.92H2637.34z"/>
	<path class="st8" d="M2876.68,2744.77h-77.85v-291.93h77.85V2744.77z"/>
	<path class="st8" d="M3012.29,2705.85l-13.04,38.92h-77.85l97.31-291.93h77.85l97.31,291.93h-77.85l-13.04-38.92H3012.29z
		 M3057.64,2569.62l-25.88,77.85h51.77L3057.64,2569.62z"/>
	<path class="st8" d="M3238.59,2452.84h77.85v233.54h136.23v58.39h-214.08V2452.84z"/>
</g>
<g>
</g>
<g>
</g>
<g>
</g>
<g>
</g>
<g>
</g>
<g>
</g>
</svg>
